<svg width="61" height="61" viewBox="0 0 61 61" fill="none" xmlns="http://www.w3.org/2000/svg">
<path opacity="0.34" d="M13 25.5H18C23 25.5 25.5 23 25.5 18V13C25.5 8 23 5.5 18 5.5H13C8 5.5 5.5 8 5.5 13V18C5.5 23 8 25.5 13 25.5Z" stroke="#292D32" stroke-width="3.75" stroke-miterlimit="10" stroke-linecap="round" stroke-linejoin="round"/>
<path d="M43 25.5H48C53 25.5 55.5 23 55.5 18V13C55.5 8 53 5.5 48 5.5H43C38 5.5 35.5 8 35.5 13V18C35.5 23 38 25.5 43 25.5Z" stroke="#292D32" stroke-width="3.75" stroke-miterlimit="10" stroke-linecap="round" stroke-linejoin="round"/>
<path opacity="0.34" d="M43 55.5H48C53 55.5 55.5 53 55.5 48V43C55.5 38 53 35.5 48 35.5H43C38 35.5 35.5 38 35.5 43V48C35.5 53 38 55.5 43 55.5Z" stroke="#292D32" stroke-width="3.75" stroke-miterlimit="10" stroke-linecap="round" stroke-linejoin="round"/>
<path d="M13 55.5H18C23 55.5 25.5 53 25.5 48V43C25.5 38 23 35.5 18 35.5H13C8 35.5 5.5 38 5.5 43V48C5.5 53 8 55.5 13 55.5Z" stroke="#292D32" stroke-width="3.75" stroke-miterlimit="10" stroke-linecap="round" stroke-linejoin="round"/>
</svg>
