<svg width="60" height="60" viewBox="0 0 60 60" fill="none" xmlns="http://www.w3.org/2000/svg">
<path d="M16.25 38.75V21.25H26.25" stroke="black" stroke-width="5" stroke-linecap="round" stroke-linejoin="round"/>
<path d="M16.25 30H25.625" stroke="black" stroke-width="5" stroke-linecap="round" stroke-linejoin="round"/>
<path d="M16.25 38.75H25.625" stroke="black" stroke-width="5" stroke-linecap="round" stroke-linejoin="round"/>
<path d="M32.5 38.75V23.75" stroke="black" stroke-width="5" stroke-linecap="round" stroke-linejoin="round"/>
<path d="M32.5 38.75V30.625C32.5 27.5184 35.0184 25 38.125 25C41.2316 25 43.75 27.5184 43.75 30.625V38.75" stroke="black" stroke-width="5" stroke-linecap="round" stroke-linejoin="round"/>
<path d="M48.75 7.5H11.25C9.17893 7.5 7.5 9.17893 7.5 11.25V48.75C7.5 50.8211 9.17893 52.5 11.25 52.5H48.75C50.8211 52.5 52.5 50.8211 52.5 48.75V11.25C52.5 9.17893 50.8211 7.5 48.75 7.5Z" stroke="black" stroke-width="5" stroke-linecap="round" stroke-linejoin="round"/>
</svg>
