<?xml version="1.0" encoding="UTF-8"?>
<!DOCTYPE svg PUBLIC "-//W3C//DTD SVG 1.1//EN" "http://www.w3.org/Graphics/SVG/1.1/DTD/svg11.dtd">
<svg xmlns="http://www.w3.org/2000/svg" version="1.1" width="67px" height="67px" style="shape-rendering:geometricPrecision; text-rendering:geometricPrecision; image-rendering:optimizeQuality; fill-rule:evenodd; clip-rule:evenodd" xmlns:xlink="http://www.w3.org/1999/xlink">
<g><path style="opacity:0.998" fill="#ed1d25" d="M -0.5,-0.5 C 21.8333,-0.5 44.1667,-0.5 66.5,-0.5C 66.5,21.8333 66.5,44.1667 66.5,66.5C 44.1667,66.5 21.8333,66.5 -0.5,66.5C -0.5,44.1667 -0.5,21.8333 -0.5,-0.5 Z"/></g>
<g><path style="opacity:1" fill="#f8a6a9" d="M 28.5,12.5 C 28.2172,13.2891 27.7172,13.9558 27,14.5C 22.1546,11.2021 18.488,12.2021 16,17.5C 15.3698,15.0966 16.2031,13.2633 18.5,12C 21.8678,11.4572 25.2011,11.6239 28.5,12.5 Z"/></g>
<g><path style="opacity:1" fill="#f9aeb0" d="M 28.5,12.5 C 34.3346,10.1608 36.8346,12.1608 36,18.5C 34.5557,20.1554 32.7224,20.822 30.5,20.5C 30.3184,22.5914 30.6518,24.5914 31.5,26.5C 29.5101,27.4981 27.5101,28.4981 25.5,29.5C 24.3856,26.5964 22.3856,24.5964 19.5,23.5C 14.93,25.5829 11.5967,24.4162 9.5,20C 10.0683,17.0825 11.7349,15.7491 14.5,16C 11.2697,17.724 10.9364,19.724 13.5,22C 17.7932,21.6266 22.1266,21.6266 26.5,22C 28.7732,20.3246 31.2732,19.158 34,18.5C 35.5086,13.5071 33.6752,11.5071 28.5,12.5 Z"/></g>
<g><path style="opacity:1" fill="#ee3033" d="M 27.5,22.5 C 30.4341,24.7388 30.1007,26.4054 26.5,27.5C 25.5,27.1667 24.8333,26.5 24.5,25.5C 25.3398,24.265 26.3398,23.265 27.5,22.5 Z"/></g>
<g><path style="opacity:1" fill="#fac3c4" d="M 23.5,34.5 C 24.2014,37.5629 24.868,40.7296 25.5,44C 25.2716,44.3988 24.9382,44.5654 24.5,44.5C 22.3034,41.4371 21.9701,38.1038 23.5,34.5 Z"/></g>
<g><path style="opacity:1" fill="#f15255" d="M 27.5,32.5 C 24.8333,36.8333 24.8333,41.1667 27.5,45.5C 26.209,45.7373 25.209,45.404 24.5,44.5C 24.9382,44.5654 25.2716,44.3988 25.5,44C 24.868,40.7296 24.2014,37.5629 23.5,34.5C 24.287,32.8958 25.6203,32.2291 27.5,32.5 Z"/></g>
<g><path style="opacity:1" fill="#f04d51" d="M 41.5,33.5 C 41.1872,37.0419 41.5206,40.3752 42.5,43.5C 42.0269,44.9063 41.0269,45.573 39.5,45.5C 40.7663,41.4677 40.7663,37.4677 39.5,33.5C 40.3957,32.4937 41.0623,32.4937 41.5,33.5 Z"/></g>
<g><path style="opacity:1" fill="#fac3c4" d="M 41.5,33.5 C 42.1174,33.6107 42.6174,33.944 43,34.5C 43.7358,37.592 43.5691,40.592 42.5,43.5C 41.5206,40.3752 41.1872,37.0419 41.5,33.5 Z"/></g>
<g><path style="opacity:1" fill="#fbc6c7" d="M 39.5,33.5 C 40.7663,37.4677 40.7663,41.4677 39.5,45.5C 39.1667,45.5 38.8333,45.5 38.5,45.5C 38.1667,45.5 37.8333,45.5 37.5,45.5C 37.4431,46.609 37.1098,47.609 36.5,48.5C 33.1888,48.117 30.1888,47.117 27.5,45.5C 24.8333,41.1667 24.8333,36.8333 27.5,32.5C 31.8016,28.3551 35.8016,28.6884 39.5,33.5 Z"/></g>
<g><path style="opacity:1" fill="#ed262a" d="M 37.5,45.5 C 28.6949,47.1815 25.5283,43.5148 28,34.5C 30.9263,30.92 34.2596,30.5867 38,33.5C 38.6936,37.554 38.5269,41.554 37.5,45.5 Z"/></g>
<g><path style="opacity:1" fill="#f9a5a6" d="M 37.5,45.5 C 37.8333,45.5 38.1667,45.5 38.5,45.5C 41.678,48.2583 45.3447,50.2583 49.5,51.5C 49.2648,52.0967 48.7648,52.4301 48,52.5C 40.9829,50.0117 40.8162,50.6783 47.5,54.5C 43.0666,53.7855 39.4,51.7855 36.5,48.5C 37.1098,47.609 37.4431,46.609 37.5,45.5 Z"/></g>
<g><path style="opacity:1" fill="#f47b7e" d="M 49.5,51.5 C 50.8734,51.3433 52.2068,51.51 53.5,52C 51.6301,53.1348 49.6301,53.9681 47.5,54.5C 40.8162,50.6783 40.9829,50.0117 48,52.5C 48.7648,52.4301 49.2648,52.0967 49.5,51.5 Z"/></g>
</svg>
