<svg width="24" height="24" viewBox="0 0 60 61" fill="none"  xmlns="http://www.w3.org/2000/svg">
<path d="M28.7508 30.5H13.5468M13.1159 32.493L10.604 39.9965C9.2282 44.106 8.54033 46.1607 9.03398 47.426C9.46265 48.525 10.3834 49.358 11.5195 49.6752C12.8278 50.0402 14.8038 49.151 18.7558 47.3727L44.0918 35.9715C47.9493 34.2355 49.878 33.3677 50.474 32.162C50.992 31.1145 50.992 29.8853 50.474 28.8378C49.878 27.6323 47.9493 26.7643 44.0918 25.0284L18.7121 13.6076C14.772 11.8346 12.802 10.948 11.495 11.3117C10.3599 11.6275 9.4393 12.4584 9.00913 13.5552C8.51378 14.8182 9.1943 16.8685 10.5554 20.9692L13.1207 28.6983C13.3545 29.4025 13.4714 29.7548 13.5175 30.1148C13.5585 30.4345 13.558 30.758 13.5163 31.0775C13.4692 31.4375 13.3514 31.7893 13.1159 32.493Z" stroke="currentColor" stroke-width="5" stroke-linecap="round" stroke-linejoin="round"/>
</svg>
