<svg width="60" height="61" viewBox="0 0 60 61" fill="none" xmlns="http://www.w3.org/2000/svg">
<path d="M32.5 50.5V45.5C32.5 38.5965 26.9035 33 20 33C13.0964 33 7.5 38.5965 7.5 45.5V50.5H32.5ZM32.5 50.5H52.5V48C52.5 40.6363 46.9035 35.5 40 35.5C36.4667 35.5 33.2757 37.0637 31.0022 39.5777M27.5 18C27.5 22.1421 24.1421 25.5 20 25.5C15.8579 25.5 12.5 22.1421 12.5 18C12.5 13.8579 15.8579 10.5 20 10.5C24.1421 10.5 27.5 13.8579 27.5 18ZM45 23C45 25.7615 42.7615 28 40 28C37.2385 28 35 25.7615 35 23C35 20.2386 37.2385 18 40 18C42.7615 18 45 20.2386 45 23Z" stroke="black" stroke-width="5" stroke-linecap="round" stroke-linejoin="round"/>
</svg>
