<svg width="60" height="60" viewBox="0 0 60 60" fill="none" xmlns="http://www.w3.org/2000/svg">
<path d="M40 25L46.442 21.1348C48.4247 19.9451 49.4163 19.3502 50.232 19.4263C50.9433 19.4926 51.5922 19.86 52.015 20.4358C52.5 21.0962 52.5 22.2524 52.5 24.5648V35.4352C52.5 37.7475 52.5 38.9037 52.015 39.5642C51.5922 40.14 50.9433 40.5075 50.232 40.5737C49.4163 40.6497 48.4247 40.055 46.442 38.8652L40 35M15.5 45H32C34.8003 45 36.2005 45 37.27 44.455C38.2107 43.9757 38.9757 43.2108 39.455 42.27C40 41.2005 40 39.8003 40 37V23C40 20.1997 40 18.7996 39.455 17.7301C38.9757 16.7892 38.2107 16.0243 37.27 15.545C36.2005 15 34.8003 15 32 15H15.5C12.6997 15 11.2996 15 10.2301 15.545C9.28923 16.0243 8.52432 16.7892 8.04497 17.7301C7.5 18.7996 7.5 20.1997 7.5 23V37C7.5 39.8003 7.5 41.2005 8.04497 42.27C8.52432 43.2108 9.28923 43.9757 10.2301 44.455C11.2996 45 12.6997 45 15.5 45Z" stroke="black" stroke-width="5" stroke-linecap="round" stroke-linejoin="round"/>
</svg>
