<svg width="24" height="24" viewBox="0 0 60 60" fill="none" xmlns="http://www.w3.org/2000/svg">
<path d="M30 37.5C34.1421 37.5 37.5 34.1421 37.5 30C37.5 25.8579 34.1421 22.5 30 22.5C25.8579 22.5 22.5 25.8579 22.5 30C22.5 34.1421 25.8579 37.5 30 37.5Z" stroke="currentColor" stroke-width="5"/>
<path d="M50.47 27.3358C51.4405 28.514 51.9257 29.103 51.9257 30C51.9257 30.897 51.4405 31.486 50.47 32.6642C46.9197 36.9747 39.0893 45 30 45C20.9107 45 13.0802 36.9747 9.52993 32.6642C8.55953 31.486 8.07433 30.897 8.07433 30C8.07433 29.103 8.55953 28.514 9.52993 27.3358C13.0802 23.0254 20.9107 15 30 15C39.0893 15 46.9197 23.0254 50.47 27.3358Z" stroke="currentColor" stroke-width="5"/>
</svg>
