<?xml version="1.0" encoding="UTF-8"?>
<svg xmlns="http://www.w3.org/2000/svg" xmlns:xlink="http://www.w3.org/1999/xlink" width="40px" height="40px" viewBox="0 0 40 40" version="1.1">
<g id="surface1">
<path style=" stroke:none;fill-rule:nonzero;fill:rgb(10.980392%,15.294118%,29.803922%);fill-opacity:1;" d="M 25 21.25 C 25.691406 21.25 26.25 20.691406 26.25 20 C 26.25 19.308594 25.691406 18.75 25 18.75 L 15 18.75 C 14.308594 18.75 13.75 19.308594 13.75 20 C 13.75 20.691406 14.308594 21.25 15 21.25 Z M 25 21.25 "/>
<path style=" stroke:none;fill-rule:evenodd;fill:rgb(10.980392%,15.294118%,29.803922%);fill-opacity:1;" d="M 20 2.082031 C 10.105469 2.082031 2.082031 10.105469 2.082031 20 C 2.082031 29.894531 10.105469 37.917969 20 37.917969 C 29.894531 37.917969 37.917969 29.894531 37.917969 20 C 37.917969 10.105469 29.894531 2.082031 20 2.082031 Z M 4.582031 20 C 4.582031 11.484375 11.484375 4.582031 20 4.582031 C 28.515625 4.582031 35.417969 11.484375 35.417969 20 C 35.417969 28.515625 28.515625 35.417969 20 35.417969 C 11.484375 35.417969 4.582031 28.515625 4.582031 20 Z M 4.582031 20 "/>
</g>
</svg>
