<?xml version="1.0" encoding="UTF-8"?>
<svg xmlns="http://www.w3.org/2000/svg" xmlns:xlink="http://www.w3.org/1999/xlink" width="30px" height="30px" viewBox="0 0 30 30" version="1.1">
<g id="surface1">
<path style=" stroke:none;fill-rule:nonzero;fill:rgb(10.980392%,15.294118%,29.803922%);fill-opacity:1;" d="M 15.621094 3.332031 C 15.445312 3.140625 15.199219 3.03125 14.941406 3.03125 C 14.679688 3.03125 14.433594 3.140625 14.257812 3.332031 L 9.339844 8.710938 C 8.996094 9.085938 9.023438 9.667969 9.398438 10.011719 C 9.773438 10.355469 10.359375 10.332031 10.703125 9.957031 L 14.015625 6.328125 L 14.015625 19.9375 C 14.015625 20.445312 14.429688 20.859375 14.941406 20.859375 C 15.449219 20.859375 15.863281 20.445312 15.863281 19.9375 L 15.863281 6.328125 L 19.175781 9.957031 C 19.519531 10.332031 20.105469 10.355469 20.480469 10.011719 C 20.855469 9.667969 20.882812 9.085938 20.539062 8.710938 Z M 15.621094 3.332031 "/>
<path style=" stroke:none;fill-rule:nonzero;fill:rgb(10.980392%,15.294118%,29.803922%);fill-opacity:1;" d="M 4.796875 18.707031 C 4.796875 18.199219 4.382812 17.785156 3.875 17.785156 C 3.363281 17.785156 2.953125 18.199219 2.953125 18.707031 L 2.953125 18.777344 C 2.953125 20.457031 2.953125 21.8125 3.09375 22.878906 C 3.242188 23.984375 3.5625 24.917969 4.300781 25.65625 C 5.042969 26.398438 5.972656 26.714844 7.082031 26.863281 C 8.148438 27.007812 9.503906 27.007812 11.183594 27.007812 L 18.695312 27.007812 C 20.378906 27.007812 21.730469 27.007812 22.796875 26.863281 C 23.90625 26.714844 24.835938 26.398438 25.578125 25.65625 C 26.316406 24.917969 26.636719 23.984375 26.785156 22.878906 C 26.925781 21.8125 26.925781 20.457031 26.925781 18.777344 L 26.925781 18.707031 C 26.925781 18.199219 26.515625 17.785156 26.003906 17.785156 C 25.496094 17.785156 25.082031 18.199219 25.082031 18.707031 C 25.082031 20.472656 25.082031 21.703125 24.957031 22.632812 C 24.835938 23.535156 24.613281 24.011719 24.273438 24.351562 C 23.933594 24.691406 23.453125 24.914062 22.550781 25.035156 C 21.625 25.160156 20.394531 25.164062 18.628906 25.164062 L 11.25 25.164062 C 9.484375 25.164062 8.253906 25.160156 7.328125 25.035156 C 6.425781 24.914062 5.945312 24.691406 5.605469 24.351562 C 5.265625 24.011719 5.042969 23.535156 4.921875 22.632812 C 4.796875 21.703125 4.796875 20.472656 4.796875 18.707031 Z M 4.796875 18.707031 "/>
</g>
</svg>
