<?xml version="1.0" encoding="UTF-8"?>
<svg xmlns="http://www.w3.org/2000/svg" xmlns:xlink="http://www.w3.org/1999/xlink" width="22px" height="22px" viewBox="0 0 22 22" version="1.1">
<g id="surface1">
<path style="fill:none;stroke-width:5;stroke-linecap:round;stroke-linejoin:round;stroke:rgb(0%,0%,0%);stroke-opacity:1;stroke-miterlimit:4;" d="M 40.003551 25.003551 L 46.43821 21.136364 C 48.419744 19.943182 49.421165 19.346591 50.230824 19.421165 C 50.944602 19.495739 51.59446 19.857955 52.009943 20.433239 C 52.5 21.09375 52.5 22.254972 52.5 24.566761 L 52.5 35.433239 C 52.5 37.745028 52.5 38.90625 52.009943 39.566761 C 51.59446 40.142045 50.944602 40.504261 50.230824 40.578835 C 49.421165 40.653409 48.419744 40.056818 46.43821 38.863636 L 40.003551 34.996449 M 15.50071 45 L 32.002841 45 C 34.804688 45 36.200284 45 37.265625 44.456676 C 38.213778 43.977273 38.980824 43.210227 39.460227 42.272727 C 40.003551 41.196733 40.003551 39.801136 40.003551 36.99929 L 40.003551 23.00071 C 40.003551 20.198864 40.003551 18.803267 39.460227 17.727273 C 38.980824 16.789773 38.213778 16.022727 37.265625 15.543324 C 36.200284 15 34.804688 15 32.002841 15 L 15.50071 15 C 12.698864 15 11.303267 15 10.227273 15.543324 C 9.289773 16.022727 8.522727 16.789773 8.043324 17.727273 C 7.5 18.803267 7.5 20.198864 7.5 23.00071 L 7.5 36.99929 C 7.5 39.801136 7.5 41.196733 8.043324 42.272727 C 8.522727 43.210227 9.289773 43.977273 10.227273 44.456676 C 11.303267 45 12.698864 45 15.50071 45 Z M 15.50071 45 " transform="matrix(0.366667,0,0,0.366667,0,0)"/>
</g>
</svg>
